<svg xmlns="http://www.w3.org/2000/svg" viewBox="0 0 640 360" width="640" height="360">
  <defs>
    <pattern id="dots" width="24" height="24" patternUnits="userSpaceOnUse">
      <circle cx="3" cy="3" r="1.6" fill="#1b2438" fill-opacity="0.08"/>
    </pattern>
  </defs>
  <rect width="640" height="360" fill="#edf1e1"/>
  <rect width="640" height="360" fill="url(#dots)"/>
  <path d="M -30 180 H 680" fill="none" stroke="#587414" stroke-width="26" stroke-linecap="round"/>
  <path d="M 190 -30 V 110 L 260 180" fill="none" stroke="#587414" stroke-width="18" stroke-linecap="round" stroke-linejoin="round" stroke-opacity="0.55"/>
  <circle cx="90" cy="180" r="15" fill="#ffffff" stroke="#587414" stroke-width="9"/>
  <circle cx="616" cy="180" r="15" fill="#ffffff" stroke="#587414" stroke-width="9"/>
  <rect x="370" y="70" width="220" height="220" rx="30" fill="#ffffff" stroke="#1b2438" stroke-width="10"/>
  <path d="M 480 180 L 424 126 M 480 180 L 536 126 M 480 180 L 424 234 M 480 180 L 536 234" fill="none" stroke="#1b2438" stroke-width="8" stroke-linecap="round"/>
  <circle cx="424" cy="126" r="15" fill="#ffffff" stroke="#1b2438" stroke-width="9"/>
  <circle cx="536" cy="126" r="15" fill="#ffffff" stroke="#1b2438" stroke-width="9"/>
  <circle cx="424" cy="234" r="15" fill="#ffffff" stroke="#1b2438" stroke-width="9"/>
  <circle cx="536" cy="234" r="15" fill="#ffffff" stroke="#1b2438" stroke-width="9"/>
  <circle cx="480" cy="180" r="22" fill="#587414" stroke="#1b2438" stroke-width="9"/>
</svg>
